<svg width="11" height="11" viewBox="0 0 11 11" fill="none" xmlns="http://www.w3.org/2000/svg">
<path d="M7.585 5.5L10.7122 2.37281C11.0959 1.98906 11.0959 1.36687 10.7122 0.982812L10.0172 0.287812C9.63344 -0.0959375 9.01125 -0.0959375 8.62719 0.287812L5.5 3.415L2.37281 0.287812C1.98906 -0.0959375 1.36687 -0.0959375 0.982812 0.287812L0.287812 0.982812C-0.0959375 1.36656 -0.0959375 1.98875 0.287812 2.37281L3.415 5.5L0.287812 8.62719C-0.0959375 9.01094 -0.0959375 9.63312 0.287812 10.0172L0.982812 10.7122C1.36656 11.0959 1.98906 11.0959 2.37281 10.7122L5.5 7.585L8.62719 10.7122C9.01094 11.0959 9.63344 11.0959 10.0172 10.7122L10.7122 10.0172C11.0959 9.63344 11.0959 9.01125 10.7122 8.62719L7.585 5.5Z" fill="#EDEEE9"/>
</svg>
