<svg width="19" height="19" viewBox="0 0 19 19" fill="none" xmlns="http://www.w3.org/2000/svg">
<path fill-rule="evenodd" clip-rule="evenodd" d="M7.85851 6.63173C8.3559 7.49385 6.33318 7.26178 7.39423 8.75386C7.92477 9.48332 9.11848 10.4781 9.94749 10.9091C12.0365 12.0366 11.2406 9.88117 12.2354 10.1796C17.3749 12.5007 12.4344 14.0261 11.1412 13.6943C9.11851 13.4954 5.37168 10.4778 4.64222 8.42214C3.68054 6.16735 5.70326 1.95637 7.85868 6.63163L7.85851 6.63173Z" fill="#7099B9"/>
<path fill-rule="evenodd" clip-rule="evenodd" d="M9.41721 0C14.59 0 18.8012 4.24446 18.8012 9.48338C18.8012 14.7555 14.59 19 9.41721 19C4.21121 19 0 14.7555 0 9.48338C0 4.24446 4.21121 0 9.41721 0ZM9.38408 0.895273C14.0594 0.895273 17.8394 4.74176 17.8394 9.48327C17.8394 14.2248 14.0594 18.0713 9.38408 18.0713C4.74197 18.0713 0.961652 14.2248 0.961652 9.48327C0.961652 4.74176 4.74163 0.895273 9.38408 0.895273Z" fill="#7099B9"/>
</svg>
