<svg width="24" height="24" viewBox="0 0 24 24" fill="none" xmlns="http://www.w3.org/2000/svg">
<path d="M17.945 9.64151C18.2573 9.32924 18.2573 8.82254 17.945 8.51026C17.6325 8.19775 17.1261 8.19775 16.8135 8.51026L10.7587 14.5651L8.01406 11.8205C7.70156 11.508 7.19509 11.508 6.88257 11.8205C6.57006 12.133 6.57007 12.6395 6.88257 12.952L9.91 15.9794C10.3788 16.4479 11.1386 16.4479 11.6071 15.9794L17.945 9.64151Z" fill="white"/>
<path fill-rule="evenodd" clip-rule="evenodd" d="M24 12C24 18.6274 18.6274 24 12 24C5.37257 24 0 18.6274 0 12C0 5.37257 5.37257 0 12 0C18.6274 0 24 5.37257 24 12ZM22.4 12C22.4 17.744 17.7438 22.4 12 22.4C6.25623 22.4 1.6 17.7438 1.6 12C1.6 6.25623 6.25623 1.6 12 1.6C17.7438 1.6 22.4 6.25623 22.4 12Z" fill="white"/>
</svg>
