<svg width="10" height="10" viewBox="0 0 10 10" fill="none" xmlns="http://www.w3.org/2000/svg">
<path d="M0.7831 0.134353C0.603962 -0.0447843 0.31349 -0.0447843 0.134353 0.134353C-0.0447843 0.31349 -0.0447843 0.603962 0.134353 0.7831L0.7831 0.134353ZM9.2169 9.86565C9.39604 10.0448 9.68651 10.0448 9.86565 9.86565C10.0448 9.68651 10.0448 9.39604 9.86565 9.2169L9.2169 9.86565ZM0.134353 9.2169C-0.0447843 9.39604 -0.0447843 9.68651 0.134353 9.86565C0.31349 10.0448 0.603962 10.0448 0.7831 9.86565L0.134353 9.2169ZM9.86565 0.7831C10.0448 0.603962 10.0448 0.31349 9.86565 0.134353C9.68651 -0.0447843 9.39604 -0.0447843 9.2169 0.134353L9.86565 0.7831ZM0.134353 0.7831L9.2169 9.86565L9.86565 9.2169L0.7831 0.134353L0.134353 0.7831ZM0.7831 9.86565L9.86565 0.7831L9.2169 0.134353L0.134353 9.2169L0.7831 9.86565Z" fill="white"/>
</svg>
